<?xml version="1.0" ?><svg xmlns="http://www.w3.org/2000/svg" xmlns:xlink="http://www.w3.org/1999/xlink" version="1.1" viewBox="0 0 512 512" style="enable-background:new 0 0 512 512;" xml:space="preserve"><g id="_x31_9_x2C__Insect_x2C__bugs_x2C__animal_x2C__entromology_x2C__spring"><g><path style="fill:#9DCAFC;" d="M311,101.38c0,16.36-24.62,29.62-55,29.62s-55-13.26-55-29.62c0-19.688,31.165-29.61,55-29.61    C281.155,71.77,311,82.476,311,101.38z"/><path style="fill:#9DCAFC;" d="M331,221l-77.2,8.57L181,221v-15c0-41.43,33.6-75,75-75c33.432,0,62.013,21.947,71.6,52.62    C332.466,199.187,330.571,210.06,331,221z"/><path style="fill:#FFFFFF;" d="M256,291l13.4,89.8L256,501c-57.959,0-105-46.983-105-105c0-13.603,0-129.988,0-145    c0-10.03,4.92-18.91,12.49-24.35L219,248.171L256,291z"/><path style="fill:#FFFFFF;" d="M256,501V291l37.8-32.6l58.18-28.83c5.57,5.44,9.02,13.03,9.02,21.43    c0,0.119,0.113,148.717-0.45,154.72C355.65,459.15,310.71,501,256,501z"/><path style="fill:#FFFFFF;" d="M351.98,229.57L256,291l-92.51-64.35c4.93-3.56,10.98-5.65,17.51-5.65h150    C339.17,221,346.57,224.27,351.98,229.57z"/><g id="XMLID_67_"><path style="fill:#4269A7;" d="M481,351h-43.819l-27.236-54.472C408.25,293.14,404.788,291,401,291h-30v-40     c0-18.446-12.622-34.245-30-38.734c-0.123-3.777,0.589-11.586-1.623-22.775l45.523-19.283c3.046-1.29,5.257-4.003,5.905-7.247     l9.406-47.031l17.859-17.859c3.905-3.905,3.905-10.237,0-14.143c-3.906-3.905-10.236-3.905-14.143,0l-20,20     c-1.396,1.396-2.348,3.174-2.734,5.11l-8.963,44.815l-39.072,16.551c-7.488-16.167-19.904-29.592-35.316-38.348     c33.091-16.562,31.004-50.429-7.575-64.605C306.94,38.784,337.804,21,371,21c5.522,0,10-4.477,10-10s-4.478-10-10-10     c-40.588,0-78.312,21.89-98.453,57.13l-2.568,4.496c-9.252-1.167-18.798-1.113-27.919,0.068l-2.608-4.566     C219.312,22.89,181.588,1,141,1c-5.522,0-10,4.477-10,10s4.478,10,10,10c33.213,0,64.093,17.803,80.757,46.496     C203.917,73.925,191,85.568,191,101.384c0,13.426,9.374,23.871,23.181,30.659c-15.423,8.756-27.848,22.186-35.34,38.361     l-39.072-16.551l-8.963-44.815c-0.387-1.936-1.339-3.714-2.734-5.11l-20-20c-3.906-3.905-10.236-3.905-14.143,0     c-3.905,3.905-3.905,10.237,0,14.143l17.859,17.859l9.406,47.031c0.648,3.244,2.859,5.957,5.905,7.247l45.523,19.283     c-2.181,11.036-1.486,18.574-1.623,22.775c-17.394,4.493-30,20.301-30,38.734v40h-30c-3.788,0-7.25,2.14-8.944,5.528L74.819,351     H31c-5.522,0-10,4.477-10,10s4.478,10,10,10h50c3.788,0,7.25-2.14,8.944-5.528L117.181,311H141v83.211l-45.3,28.309     c-2.924,1.828-4.7,5.032-4.7,8.48v44.648l-25.547,17.032c-4.596,3.063-5.837,9.272-2.773,13.867     c3.082,4.624,9.302,5.818,13.867,2.773l30-20c2.782-1.854,4.453-4.977,4.453-8.32v-44.457l31.858-19.908     C152.608,470.232,199.631,511,256,511c54.413,0,100.119-37.988,111.995-88.835L391,436.542V481c0,3.344,1.671,6.466,4.453,8.32     l30,20c4.582,3.055,10.795,1.836,13.867-2.773c3.063-4.595,1.822-10.804-2.773-13.867L411,475.648V431     c0-3.448-1.776-6.653-4.7-8.48l-35.392-22.119c0.176-4.641,0.055,0.163,0.093-89.401h23.819l27.236,54.472     C423.75,368.859,427.212,371,431,371h50c5.522,0,10-4.477,10-10S486.522,351,481,351z M256.231,278.979L187.256,231     c30.008,0.002,142.321-0.007,143.925,0.009L256.231,278.979z M211,101.384c0-6.146,10.36-14.423,27.618-17.93     C273.249,76.984,301,90.912,301,101.384c0,7.998-17.53,19.615-45,19.615S211,109.382,211,101.384z M256,141     c35.841,0,65,29.159,65,65v5H191v-5C191,170.158,220.159,141,256,141z M161,396V251c0-4.238,1.334-8.165,3.591-11.403     L246,296.225v194.249C198.3,485.461,161,445.006,161,396z M266,490.474V296.472l83.372-53.36     c1.044,2.422,1.628,5.087,1.628,7.888v145C351,445.006,313.7,485.461,266,490.474z"/></g></g></g><g id="Layer_1"/></svg>